<svg xmlns="http://www.w3.org/2000/svg" viewBox="0 0 80 80">
  <path d="M39 9C38.627654 9 38.301465 9.1011007 37.974609 9.1933594 A 1.0001 1.0001 0 0 0 37.568359 9.2675781L37.501953 9.296875C37.454333 9.315926 37.407373 9.3362058 37.365234 9.3554688L9.6113281 21.078125 A 1.0001 1.0001 0 0 0 9 22L9 27 A 1.0001 1.0001 0 0 0 10 28L13 28L13 30C13 31.093063 13.906937 32 15 32L15 58L13 58 A 1.0001 1.0001 0 0 0 12 59L12 63L10 63 A 1.0001 1.0001 0 0 0 9 64L9 69 A 1.0001 1.0001 0 0 0 10 70L68 70 A 1.0001 1.0001 0 0 0 69 69L69 64 A 1.0001 1.0001 0 0 0 68 63L66 63L66 59 A 1.0001 1.0001 0 0 0 65 58L63 58L63 32C64.093063 32 65 31.093063 65 30L65 28L68 28 A 1.0001 1.0001 0 0 0 69 27L69 22 A 1.0001 1.0001 0 0 0 68.388672 21.078125L40.634766 9.3554688C40.571108 9.3263679 40.52555 9.3083348 40.498047 9.296875L40.431641 9.2675781 A 1.0001 1.0001 0 0 0 40.025391 9.1914062C39.698634 9.0992041 39.372217 9 39 9 z M 39 11C39.231692 11 39.459099 11.0471 39.693359 11.134766 A 1.0001 1.0001 0 0 0 39.753906 11.154297C39.773896 11.162597 39.798594 11.171938 39.802734 11.173828 A 1.0001 1.0001 0 0 0 39.830078 11.185547L67 22.664062L67 26L64 26L14 26L11 26L11 22.664062L38.169922 11.185547 A 1.0001 1.0001 0 0 0 38.197266 11.173828C38.212606 11.166828 38.224318 11.16115 38.236328 11.15625 A 1.0001 1.0001 0 0 0 38.306641 11.134766C38.54091 11.047097 38.768308 11 39 11 z M 25 21 A 1 1 0 0 0 24 22 A 1 1 0 0 0 25 23 A 1 1 0 0 0 26 22 A 1 1 0 0 0 25 21 z M 29 21 A 1 1 0 0 0 28 22 A 1 1 0 0 0 29 23 A 1 1 0 0 0 30 22 A 1 1 0 0 0 29 21 z M 33 21 A 1 1 0 0 0 32 22 A 1 1 0 0 0 33 23 A 1 1 0 0 0 34 22 A 1 1 0 0 0 33 21 z M 37 21 A 1 1 0 0 0 36 22 A 1 1 0 0 0 37 23 A 1 1 0 0 0 38 22 A 1 1 0 0 0 37 21 z M 41 21 A 1 1 0 0 0 40 22 A 1 1 0 0 0 41 23 A 1 1 0 0 0 42 22 A 1 1 0 0 0 41 21 z M 45 21 A 1 1 0 0 0 44 22 A 1 1 0 0 0 45 23 A 1 1 0 0 0 46 22 A 1 1 0 0 0 45 21 z M 49 21 A 1 1 0 0 0 48 22 A 1 1 0 0 0 49 23 A 1 1 0 0 0 50 22 A 1 1 0 0 0 49 21 z M 53 21 A 1 1 0 0 0 52 22 A 1 1 0 0 0 53 23 A 1 1 0 0 0 54 22 A 1 1 0 0 0 53 21 z M 15 28L23 28L23 30L22 30 A 1.0001 1.0001 0 0 0 21 31L21 59 A 1.0001 1.0001 0 0 0 22 60L26 60 A 1.0001 1.0001 0 0 0 27 59L27 31 A 1.0001 1.0001 0 0 0 26 30L25 30L25 28L33 28L33 30L32 30 A 1.0001 1.0001 0 0 0 31 31L31 59 A 1.0001 1.0001 0 0 0 32 60L36 60 A 1.0001 1.0001 0 0 0 37 59L37 31 A 1.0001 1.0001 0 0 0 36 30L35 30L35 28L43 28L43 30L42 30 A 1.0001 1.0001 0 0 0 41 31L41 59 A 1.0001 1.0001 0 0 0 42 60L46 60 A 1.0001 1.0001 0 0 0 47 59L47 31 A 1.0001 1.0001 0 0 0 46 30L45 30L45 28L53 28L53 30L52 30 A 1.0001 1.0001 0 0 0 51 31L51 59 A 1.0001 1.0001 0 0 0 52 60L56 60 A 1.0001 1.0001 0 0 0 57 59L57 31 A 1.0001 1.0001 0 0 0 56 30L55 30L55 28L63 28L63 30L62 30 A 1.0001 1.0001 0 0 0 61 31L61 59 A 1.0001 1.0001 0 0 0 62 60L64 60L64 64 A 1.0001 1.0001 0 0 0 65 65L67 65L67 68L11 68L11 65L13 65 A 1.0001 1.0001 0 0 0 14 64L14 60L16 60 A 1.0001 1.0001 0 0 0 17 59L17 31 A 1.0001 1.0001 0 0 0 16 30L15 30L15 28 z M 24 31.582031C24.308615 31.777901 24.612475 32 25 32L25 58L23 58L23 32C23.387525 32 23.691385 31.777901 24 31.582031 z M 34 31.582031C34.308615 31.777901 34.612475 32 35 32L35 58L33 58L33 32C33.387525 32 33.691385 31.777901 34 31.582031 z M 44 31.582031C44.308615 31.777901 44.612475 32 45 32L45 58L43 58L43 32C43.387525 32 43.691385 31.777901 44 31.582031 z M 54 31.582031C54.308615 31.777901 54.612475 32 55 32L55 58L53 58L53 32C53.387525 32 53.691385 31.777901 54 31.582031 z M 19 58 A 1 1 0 0 0 18 59 A 1 1 0 0 0 19 60 A 1 1 0 0 0 20 59 A 1 1 0 0 0 19 58 z M 29 58 A 1 1 0 0 0 28 59 A 1 1 0 0 0 29 60 A 1 1 0 0 0 30 59 A 1 1 0 0 0 29 58 z M 39 58 A 1 1 0 0 0 38 59 A 1 1 0 0 0 39 60 A 1 1 0 0 0 40 59 A 1 1 0 0 0 39 58 z M 49 58 A 1 1 0 0 0 48 59 A 1 1 0 0 0 49 60 A 1 1 0 0 0 50 59 A 1 1 0 0 0 49 58 z M 59 58 A 1 1 0 0 0 58 59 A 1 1 0 0 0 59 60 A 1 1 0 0 0 60 59 A 1 1 0 0 0 59 58 z M 17 63 A 1 1 0 0 0 16 64 A 1 1 0 0 0 17 65 A 1 1 0 0 0 18 64 A 1 1 0 0 0 17 63 z M 21 63 A 1 1 0 0 0 20 64 A 1 1 0 0 0 21 65 A 1 1 0 0 0 22 64 A 1 1 0 0 0 21 63 z M 25 63 A 1 1 0 0 0 24 64 A 1 1 0 0 0 25 65 A 1 1 0 0 0 26 64 A 1 1 0 0 0 25 63 z M 29 63 A 1 1 0 0 0 28 64 A 1 1 0 0 0 29 65 A 1 1 0 0 0 30 64 A 1 1 0 0 0 29 63 z M 33 63 A 1 1 0 0 0 32 64 A 1 1 0 0 0 33 65 A 1 1 0 0 0 34 64 A 1 1 0 0 0 33 63 z M 37 63 A 1 1 0 0 0 36 64 A 1 1 0 0 0 37 65 A 1 1 0 0 0 38 64 A 1 1 0 0 0 37 63 z M 41 63 A 1 1 0 0 0 40 64 A 1 1 0 0 0 41 65 A 1 1 0 0 0 42 64 A 1 1 0 0 0 41 63 z M 45 63 A 1 1 0 0 0 44 64 A 1 1 0 0 0 45 65 A 1 1 0 0 0 46 64 A 1 1 0 0 0 45 63 z M 49 63 A 1 1 0 0 0 48 64 A 1 1 0 0 0 49 65 A 1 1 0 0 0 50 64 A 1 1 0 0 0 49 63 z M 53 63 A 1 1 0 0 0 52 64 A 1 1 0 0 0 53 65 A 1 1 0 0 0 54 64 A 1 1 0 0 0 53 63 z M 57 63 A 1 1 0 0 0 56 64 A 1 1 0 0 0 57 65 A 1 1 0 0 0 58 64 A 1 1 0 0 0 57 63 z M 61 63 A 1 1 0 0 0 60 64 A 1 1 0 0 0 61 65 A 1 1 0 0 0 62 64 A 1 1 0 0 0 61 63 z" fill="#383E56" />
</svg>